<svg id="logo-19" width="80" height="70" viewBox="0 0 80 70" fill="none" xmlns="http://www.w3.org/2000/svg"> <path d="M17.4305 59.8239H20.9637C20.9256 60.1797 20.8493 60.8787 20.5951 61.3744C19.7944 63.0901 17.9516 64.0433 14.4566 64.0433C11.6605 64.0433 9.84306 63.3443 8.86446 62.1624C8.19086 61.3744 7.84766 60.2814 7.84766 58.8834C7.84766 57.6125 8.16545 56.5576 8.80085 55.7823C9.81765 54.5114 11.6478 53.7489 14.5201 53.7489C18.4345 53.7489 20.0613 55.1469 20.6587 56.6339C20.862 57.1549 20.9256 57.7396 20.9383 58.0573H17.4051C17.3923 57.8285 17.3034 57.5362 17.1509 57.3201C16.7823 56.7864 15.9689 56.3924 14.482 56.3924C13.1348 56.3924 12.1562 56.7355 11.7113 57.4345C11.4826 57.7777 11.3936 58.2861 11.3936 58.9215C11.3936 59.6078 11.508 60.0781 11.7495 60.4212C12.2452 61.1583 13.3509 61.4379 14.4947 61.4379C15.8291 61.4379 16.7822 61.171 17.2017 60.561C17.3543 60.3449 17.4178 60.0908 17.4305 59.8239Z" class="ccustom" fill="#394149"></path> <path d="M31.8771 61.2346V63.8908H22.3579V53.9141H25.8021V61.2346H31.8771Z" class="ccustom" fill="#394149"></path> <path d="M43.741 63.8908V61.4125H36.5857V60.1162H43.4487V57.6887H36.5857V56.4051H43.6521V53.9141H33.2305V63.8908H43.741Z" class="ccustom" fill="#394149"></path> <path fill-rule="evenodd" clip-rule="evenodd" d="M54.214 62.048H48.8253L47.8975 63.8908H44.3008L49.626 53.9141H53.731L58.764 63.8908H55.091L54.214 62.048ZM49.9437 59.8112H53.134L51.9391 57.3964L51.5832 56.494L51.202 57.4091L49.9437 59.8112Z" class="ccustom" fill="#394149"></path> <path fill-rule="evenodd" clip-rule="evenodd" d="M71.5358 56.9516C71.5358 56.0492 71.3198 55.401 70.8618 54.9308C70.2648 54.2953 69.2348 53.9141 67.6598 53.9141H59.7158V63.8908H63.1098V60.3704H66.1978L68.6758 63.8908H72.4638L69.4518 59.8239C70.1248 59.7222 70.6718 59.3155 71.0268 58.8325C71.3448 58.3877 71.5358 57.7268 71.5358 56.9516ZM68.2308 57.2693C68.2308 57.4345 68.2058 57.6379 68.1168 57.7904C67.9898 58.0446 67.6598 58.1463 67.1128 58.1463H63.1218V56.3288H67.0488C67.5828 56.3288 67.9388 56.4178 68.1168 56.7482C68.2058 56.8753 68.2308 57.0787 68.2308 57.2693Z" class="ccustom" fill="#394149"></path> <path d="M52.796 8.47592C52.796 8.64122 52.771 8.84452 52.682 8.99702C52.555 9.25122 52.224 9.35292 51.6777 9.35292H47.687V7.53552H51.6141C52.148 7.53552 52.504 7.62442 52.682 7.95492C52.771 8.08202 52.796 8.28532 52.796 8.47592Z" class="ccustom" fill="#394149"></path> <path d="M62.7319 11.0178H65.9219L64.7269 8.60298L64.3709 7.70068L63.9899 8.61578L62.7319 11.0178Z" class="ccustom" fill="#394149"></path> <path fill-rule="evenodd" clip-rule="evenodd" d="M2.0415 8.45235C2.453 4.40055 5.8749 1.23865 10.0353 1.23865H69.965C74.403 1.23865 78 4.83615 78 9.27395V59.5597C78 63.9975 74.403 67.595 69.965 67.595H10.0353C5.5975 67.595 2 63.9975 2 59.5597V9.27395C2 8.99655 2.0141 8.72255 2.0415 8.45235ZM3.674 23.7132L30.681 32.8471C31.4167 32.1006 32.4179 31.4517 33.6223 30.9461C33.8992 30.8298 34.185 30.722 34.4784 30.6228L23.2187 19.1984H32.0325L36.9804 30.0157C37.6338 29.9132 38.3055 29.8479 38.9864 29.8218C39.2129 29.8131 39.4394 29.8087 39.6655 29.8087V19.1984H47.2983L42.3504 30.0159C43.1126 30.1356 43.8526 30.3063 44.5552 30.5263C45.4595 30.8095 46.2826 31.1681 47.0007 31.5888L68.152 19.1984H76.326V23.4868L45.3647 33.9581C44.7139 33.2977 43.7434 32.7653 42.5759 32.428C41.4085 32.0908 40.0966 31.9639 38.806 32.0634C37.5155 32.1629 36.3044 32.4844 35.3257 32.9871C34.3471 33.4899 33.6449 34.1514 33.308 34.8879C32.9711 35.6244 33.0146 36.4029 33.433 37.125C33.8514 37.847 34.626 38.4803 35.6586 38.9445C36.6913 39.4086 37.9358 39.6829 39.2347 39.7328C39.9564 39.7605 40.677 39.7183 41.3683 39.6097C41.9208 39.523 42.4551 39.3939 42.9558 39.2245L53.217 49.6353H45.9547L42.3499 41.7557C40.5892 42.0321 38.7373 42.0315 36.9804 41.7558L33.3762 49.6353H26.1141L34.4783 41.1488C33.6952 40.8839 32.9724 40.5595 32.3296 40.183L16.1939 49.6353H3.674V48.0584L30.6809 38.9244C30.0595 38.2939 29.6337 37.6003 29.4295 36.8757C29.1881 36.0192 29.2636 35.1455 29.6445 34.3129L3.674 30.2365V23.7132ZM76.326 48.2847L39.6655 35.8857L76.326 41.6401V48.2847ZM76.326 51.3093H3.674V59.5597C3.674 63.0729 6.522 65.9209 10.0353 65.9209H69.965C73.478 65.9209 76.326 63.0729 76.326 59.5597V51.3093ZM21.5029 11.2466V5.12075H18.0968V10.9415C18.0968 11.9837 17.1309 12.6827 15.5042 12.6827C13.8011 12.6827 12.8733 12.0091 12.8733 10.9288V5.12075H9.4291V10.9288C9.4291 13.9536 11.9075 15.2373 15.3644 15.2373C19.0628 15.2373 21.5029 13.9409 21.5029 11.2466ZM32.9738 15.0975V12.4412H26.8988V5.12075H23.4546V15.0975H32.9738ZM43.2096 5.12075V7.62445H38.9902V15.0975H35.5078V7.62445H31.3011V5.12075H43.2096ZM56.1 8.15825C56.1 7.25595 55.884 6.60775 55.427 6.13745C54.83 5.50205 53.8 5.12075 52.224 5.12075H44.2809V15.0975H47.6742V11.577H50.7626L53.241 15.0975H57.028L54.016 11.0305C54.69 10.9288 55.236 10.5221 55.592 10.0392C55.91 9.59445 56.1 8.93355 56.1 8.15825ZM67.002 13.2546H61.613L60.686 15.0975H57.089L62.414 5.12075H66.519L71.552 15.0975H67.879L67.002 13.2546Z" class="ccustom" fill="#394149"></path> </svg>